# xmcd
#
# Track frame offsets:
#	150
#	24845
#	40943
#	53538
#	71552
#	89830
#	107183
#	135580
#	152033
#	168863
#	183612
#	201782
#
# Disc length: 2918 seconds
#
# Revision: 1
# Processed by: cddbd v1.5PL3 Copyright (c) Steve Scherf et al.
# Submitted via: audiograbber 1.81.03
#
DISCID=9e0b640c
DTITLE=Blue Voodoo - Red Hot Blues
DYEAR=2003
DGENRE=Blues
TTITLE0=Little By Little
TTITLE1=Closed Curtain
TTITLE2=I Got Loaded
TTITLE3=Walkin' By Myself
TTITLE4=Nasty Habits
TTITLE5=Don't Believe It
TTITLE6=Hurt So Bad
TTITLE7=Lucille
TTITLE8=What's In It For Me
TTITLE9=Her Mind Is Gone
TTITLE10=Take Me To The River
TTITLE11=Next Door To The Blues
EXTD=
EXTT0=
EXTT1=
EXTT2=
EXTT3=
EXTT4=
EXTT5=
EXTT6=
EXTT7=
EXTT8=
EXTT9=
EXTT10=
EXTT11=
PLAYORDER=
